<svg width="48" height="73" viewBox="0 0 48 73" fill="none" xmlns="http://www.w3.org/2000/svg">
<path d="M28.21 25.3149L30 72.5H17.5L19.295 25.1624L20.06 5.00732L20.25 0H27.25L27.43 4.73724L28.21 25.3149Z" fill="white"/>
<path d="M12.3775 5C12.4375 5.41 12.5 5.82 12.5 6.25V8.75C12.5 13.5975 8.5975 17.5 3.75 17.5H0V25H47.5V5H12.375H12.3775Z" fill="white"/>
<path fill-rule="evenodd" clip-rule="evenodd" d="M20 8.75244C19.6685 8.75244 19.3506 8.88393 19.1161 9.11835C18.8817 9.35277 18.75 9.67092 18.75 10.0024C18.75 10.334 18.8817 10.6518 19.1161 10.8862C19.3506 11.1207 19.6685 11.2524 20 11.2524H41.25V14.9847C41.25 15.3163 41.3817 15.6344 41.6161 15.8688C41.8506 16.1033 42.1685 16.2347 42.5 16.2347C42.8315 16.2347 43.1494 16.1033 43.3839 15.8688C43.6183 15.6344 43.75 15.3163 43.75 14.9847V10.0024C43.75 9.67092 43.6183 9.35277 43.3839 9.11835C43.1494 8.88393 42.8315 8.75244 42.5 8.75244H20Z" fill="#B0B0B3"/>
</svg>
